<?xml version="1.0" standalone="no"?>
<!DOCTYPE svg PUBLIC "-//W3C//DTD SVG 20010904//EN"
 "http://www.w3.org/TR/2001/REC-SVG-20010904/DTD/svg10.dtd">
<svg version="1.0" xmlns="http://www.w3.org/2000/svg"
 width="2214.000000pt" height="2214.000000pt" viewBox="0 0 2214.000000 2214.000000"
 preserveAspectRatio="xMidYMid meet">
<metadata>
Created by potrace 1.11, written by Peter Selinger 2001-2013
</metadata>
<g transform="translate(0.000000,2214.000000) scale(0.100000,-0.100000)"
fill="#000000" stroke="none">
<path d="M10057 20864 c-1 -1 -18 -4 -37 -7 -81 -13 -142 -41 -201 -94 -40
-36 -99 -113 -103 -136 -2 -7 -8 -25 -15 -42 -19 -45 -19 -60 -20 -931 l-1
-812 -43 -6 c-24 -4 -55 -9 -68 -11 -13 -2 -40 -6 -59 -9 -19 -3 -45 -8 -56
-10 -12 -2 -37 -7 -55 -10 -35 -6 -65 -12 -109 -21 -32 -7 -67 -14 -103 -20
-15 -3 -53 -12 -85 -21 -31 -8 -65 -17 -75 -19 -9 -2 -45 -11 -80 -20 -34 -9
-69 -18 -77 -20 -8 -2 -49 -13 -90 -25 -41 -11 -82 -23 -90 -25 -8 -2 -46 -13
-85 -25 -38 -12 -84 -26 -101 -31 -49 -14 -87 -62 -90 -111 -4 -71 28 -119
164 -252 68 -66 156 -164 195 -216 40 -52 75 -96 80 -98 4 -2 7 -8 7 -13 0 -5
16 -34 36 -65 44 -69 93 -175 169 -371 65 -164 56 -155 125 -138 14 3 34 8 45
9 11 2 43 9 70 16 28 6 58 14 68 16 9 2 26 6 37 9 11 3 29 7 41 10 11 2 28 6
37 9 17 5 62 14 112 21 14 3 34 6 45 8 11 3 40 8 65 12 25 4 52 9 61 10 9 2
40 6 69 10 29 4 61 8 70 10 25 5 121 17 155 20 17 1 66 6 110 10 342 32 814
37 1095 10 19 -1 69 -6 110 -9 41 -4 89 -8 105 -10 17 -2 57 -7 90 -11 33 -3
67 -8 75 -10 8 -2 39 -7 69 -10 30 -4 63 -9 75 -11 11 -2 38 -6 61 -9 22 -3
47 -8 56 -11 9 -2 32 -7 50 -9 19 -3 45 -7 59 -10 14 -3 36 -7 50 -10 14 -3
36 -7 50 -11 14 -3 35 -7 47 -9 11 -2 30 -6 41 -9 11 -4 30 -9 41 -11 12 -3
30 -7 41 -10 11 -3 29 -7 40 -10 11 -3 29 -7 40 -10 11 -3 28 -7 38 -9 54 -12
258 -74 397 -121 740 -246 1438 -628 2065 -1131 63 -50 127 -102 141 -115 14
-13 55 -49 90 -79 251 -214 603 -595 839 -910 36 -47 67 -87 70 -90 38 -36
281 -414 392 -610 69 -122 268 -526 268 -544 0 -3 11 -29 25 -58 30 -66 136
-333 134 -341 -1 -2 29 -80 46 -122 5 -11 9 -22 10 -25 3 -12 27 -86 32 -100
4 -8 7 -17 8 -20 0 -3 13 -43 27 -90 30 -94 78 -257 83 -280 2 -8 8 -35 15
-60 9 -38 28 -117 46 -195 2 -11 6 -31 9 -45 9 -45 15 -75 20 -102 4 -15 8
-39 10 -55 3 -27 10 -65 19 -109 2 -12 7 -45 11 -75 3 -30 8 -61 10 -69 4 -13
9 -54 20 -150 3 -25 14 -144 20 -210 28 -308 28 -869 0 -1135 -14 -135 -35
-311 -41 -339 -2 -12 -6 -37 -9 -56 -3 -19 -7 -46 -10 -60 -3 -14 -7 -42 -10
-64 -3 -21 -7 -41 -9 -45 -2 -3 -7 -27 -10 -53 -4 -26 -9 -53 -11 -60 -2 -7
-6 -24 -9 -38 -2 -14 -9 -43 -14 -65 -6 -22 -14 -54 -17 -72 -3 -18 -9 -43
-15 -57 -5 -15 -8 -26 -5 -26 2 0 -2 -18 -10 -40 -8 -22 -14 -41 -14 -43 1 -1
-4 -22 -11 -47 -7 -25 -14 -52 -15 -60 -6 -24 -63 -206 -105 -332 -65 -194
-150 -408 -243 -608 -293 -634 -681 -1218 -1132 -1705 -100 -108 -311 -318
-390 -390 -63 -57 -374 -315 -440 -366 -196 -150 -533 -369 -715 -465 -30 -16
-57 -31 -60 -34 -3 -3 -14 -10 -25 -15 -11 -6 -85 -44 -165 -84 -80 -41 -147
-75 -150 -76 -3 0 -30 -12 -60 -27 -30 -14 -80 -37 -110 -50 -79 -36 -398
-163 -445 -178 -22 -7 -44 -15 -50 -19 -5 -3 -14 -6 -20 -7 -5 -2 -64 -20
-130 -42 -66 -22 -156 -49 -200 -62 -44 -12 -87 -24 -95 -27 -8 -2 -15 -4 -15
-3 0 0 -24 -7 -54 -16 -30 -9 -63 -18 -73 -20 -10 -2 -26 -6 -35 -8 -10 -2
-61 -14 -113 -26 -52 -12 -104 -23 -115 -26 -25 -5 -60 -12 -100 -19 -16 -3
-52 -10 -80 -15 -55 -11 -87 -16 -155 -25 -25 -3 -58 -8 -75 -11 -59 -10 -98
-15 -235 -29 -240 -24 -346 -29 -640 -29 -257 0 -598 9 -690 19 -161 17 -291
33 -330 40 -13 3 -42 7 -65 10 -64 10 -97 15 -145 26 -25 6 -56 12 -70 14 -42
6 -210 45 -282 65 -38 10 -71 19 -73 19 -3 0 -31 7 -63 16 -31 10 -66 19 -77
21 -11 2 -31 8 -45 13 -14 5 -59 19 -100 31 -92 27 -320 105 -455 154 -104 39
-115 43 -179 71 -21 9 -44 18 -50 19 -6 1 -22 8 -36 16 -14 7 -25 12 -25 11 0
-5 -141 55 -270 114 -27 12 -72 33 -100 45 -107 47 -481 235 -592 297 -304
170 -607 372 -875 584 -77 60 -290 239 -308 259 -3 3 -32 29 -65 59 -386 349
-790 820 -1116 1301 -35 52 -67 97 -71 98 -5 2 -8 7 -8 12 0 5 -31 57 -69 117
-179 282 -398 687 -526 968 -15 33 -40 87 -55 120 -46 101 -58 127 -95 220
-47 114 -68 150 -122 202 -95 94 -235 129 -364 92 -24 -7 -47 -13 -50 -13 -4
-1 -29 -16 -58 -34 -111 -72 -175 -193 -173 -327 0 -55 9 -94 43 -200 12 -38
23 -74 25 -80 1 -5 17 -55 35 -110 18 -55 34 -104 35 -110 4 -14 92 -267 100
-285 4 -8 8 -19 10 -25 1 -5 14 -41 29 -80 14 -38 31 -83 37 -100 6 -16 14
-34 18 -40 4 -5 11 -21 15 -35 7 -23 50 -131 77 -190 6 -14 12 -27 13 -30 1
-3 9 -22 18 -44 9 -21 17 -40 17 -41 0 -4 66 -149 128 -280 183 -390 413 -795
638 -1128 52 -76 94 -142 94 -147 0 -4 4 -10 8 -12 4 -1 37 -43 72 -93 416
-579 965 -1145 1530 -1576 158 -120 359 -259 585 -404 77 -49 301 -178 416
-240 102 -54 427 -215 434 -215 3 0 28 -11 57 -24 113 -51 294 -128 310 -131
10 -2 32 -11 50 -19 57 -26 465 -170 513 -181 5 -1 17 -5 25 -8 8 -3 56 -17
105 -32 50 -14 113 -32 140 -40 28 -9 59 -17 70 -19 11 -2 53 -13 93 -24 39
-12 72 -19 72 -16 0 3 8 0 18 -5 9 -5 31 -11 47 -14 17 -3 82 -17 145 -32 63
-14 129 -28 145 -31 17 -2 37 -7 45 -9 8 -2 26 -6 40 -9 115 -20 150 -26 184
-31 21 -3 43 -9 50 -13 8 -5 11 -218 12 -837 l0 -830 37 -76 c58 -121 166
-205 292 -226 62 -11 1563 -10 1625 1 93 16 205 96 265 190 56 87 55 61 55
924 0 437 3 798 6 803 3 5 9 7 13 5 4 -3 23 -1 42 4 19 5 50 11 69 14 19 3 46
8 60 11 14 3 36 7 50 10 66 13 79 16 138 29 9 2 53 11 96 20 44 9 82 19 86 21
4 2 20 6 36 9 16 3 65 15 109 27 76 20 92 24 133 33 9 2 37 9 62 16 25 7 45
11 45 9 0 -1 9 3 21 9 11 6 33 13 48 16 15 3 42 9 59 15 18 5 73 22 122 36
165 50 429 133 505 160 104 37 111 36 135 -6 11 -20 41 -72 66 -115 25 -44
141 -245 259 -449 117 -203 243 -422 280 -485 37 -63 96 -167 133 -230 116
-201 224 -277 396 -278 59 0 153 20 176 38 6 4 30 19 55 32 25 14 90 51 145
83 55 32 116 67 135 78 19 11 109 62 200 115 91 53 192 111 225 130 33 19 76
44 95 55 19 11 55 31 80 45 25 14 73 42 106 62 34 21 75 43 93 51 17 8 31 17
31 21 0 5 5 8 10 8 24 0 192 114 226 153 91 105 123 268 77 395 -10 26 -55
113 -101 192 -46 80 -87 152 -92 160 -5 8 -23 40 -41 70 -17 30 -40 70 -51 88
-32 56 -57 101 -77 135 -10 17 -52 90 -92 160 -41 71 -86 150 -102 175 -128
218 -148 274 -143 400 2 48 6 96 9 107 10 39 44 121 65 155 32 52 879 897 938
935 94 62 246 92 364 73 41 -7 122 -38 168 -65 65 -37 423 -244 597 -345 99
-58 200 -115 225 -129 25 -13 47 -27 50 -30 10 -11 187 -108 230 -126 33 -13
70 -18 140 -18 86 1 102 4 164 33 125 58 122 54 517 741 89 154 142 247 189
326 28 50 62 108 75 130 12 22 55 96 94 165 81 142 94 178 94 270 0 82 -7 117
-39 185 -43 90 -99 135 -358 286 -131 76 -240 139 -241 139 -2 0 -32 17 -66
38 -35 22 -84 50 -109 64 -25 14 -131 75 -237 136 -105 62 -194 112 -197 112
-7 0 -32 20 -87 68 -68 60 -134 183 -154 287 -10 56 -6 143 10 207 10 34 19
72 21 82 2 10 8 33 14 51 6 18 13 41 15 51 2 10 14 55 26 99 11 44 22 85 23
90 2 6 8 30 15 55 7 25 14 52 16 60 2 8 13 50 25 92 11 43 23 86 25 98 3 11 7
30 10 42 3 13 9 34 15 48 5 14 11 34 13 45 1 11 6 26 10 33 5 6 6 12 3 12 -2
0 0 15 5 33 11 36 18 61 25 94 2 12 8 33 13 45 5 13 9 26 10 31 10 73 58 156
135 234 73 72 151 119 240 142 25 7 280 11 695 11 361 1 674 3 696 6 114 14
242 113 298 232 l32 67 0 835 0 835 -27 57 c-37 80 -72 123 -137 169 -104 74
-85 73 -831 74 -366 1 -681 5 -700 9 -63 14 -124 39 -177 73 -62 41 -156 139
-183 192 -16 31 -64 185 -75 241 -2 8 -10 42 -19 75 -9 33 -19 69 -22 80 -7
27 -9 33 -23 85 -7 25 -15 52 -16 60 -2 8 -13 51 -25 95 -12 44 -23 89 -25 99
-3 10 -9 33 -15 51 -6 18 -12 41 -14 51 -2 10 -11 46 -20 79 -10 33 -19 74
-22 90 -4 17 -10 37 -15 46 -4 9 -11 31 -14 50 -3 19 -12 55 -20 81 -13 46
-15 187 -2 233 3 11 7 27 9 35 7 31 71 147 104 186 32 40 96 87 179 134 53 29
454 261 725 418 118 69 231 134 250 145 91 50 164 134 195 223 23 65 26 185 8
249 -16 51 -29 76 -208 385 -135 233 -142 245 -173 299 -14 25 -38 68 -55 95
-28 49 -41 71 -93 161 -242 424 -311 533 -341 535 -7 0 -16 6 -20 13 -8 13
-31 25 -98 53 -56 23 -187 26 -250 6 -44 -15 -186 -91 -353 -190 -29 -18 -57
-32 -62 -32 -6 0 -10 -4 -10 -10 0 -5 -5 -10 -10 -10 -6 0 -122 -65 -258 -144
-136 -79 -264 -153 -284 -165 -21 -11 -55 -31 -75 -42 -105 -60 -163 -90 -180
-94 -10 -2 -36 -7 -58 -12 -42 -10 -142 -9 -185 0 -14 3 -36 8 -49 11 -13 3
-53 19 -90 36 -60 28 -105 71 -518 483 -411 412 -455 458 -482 517 -51 111
-67 221 -47 335 7 41 52 140 104 230 70 120 257 444 280 485 14 25 35 61 47
80 12 19 33 55 47 80 14 25 67 117 117 205 108 188 120 223 116 330 -3 80 -36
195 -56 195 -5 0 -9 6 -9 13 0 7 -24 36 -52 64 -38 36 -132 96 -328 209 -151
86 -308 177 -348 201 -41 24 -75 43 -77 43 -3 0 -48 26 -102 59 -54 32 -118
69 -143 83 -74 42 -224 127 -240 138 -141 89 -221 118 -320 115 -90 -2 -118
-8 -179 -40 -97 -49 -131 -92 -312 -405 -94 -162 -181 -313 -193 -335 -13 -22
-49 -84 -80 -137 -31 -54 -56 -102 -56 -107 0 -5 -4 -11 -8 -13 -7 -3 -48 -71
-121 -202 -67 -118 -188 -206 -336 -243 -11 -2 -51 -6 -90 -8 -68 -3 -104 4
-285 53 -177 48 -273 74 -291 78 -10 2 -29 6 -40 9 -12 2 -36 9 -54 15 -18 6
-41 12 -51 14 -10 2 -46 11 -79 20 -76 21 -95 26 -123 32 -13 2 -42 11 -65 18
-41 14 -191 54 -232 62 -11 2 -49 18 -85 35 -111 53 -242 210 -265 317 -3 12
-7 32 -10 44 -3 13 -5 324 -5 693 -1 723 0 718 -54 809 -50 85 -139 154 -236
183 -49 15 -140 17 -833 18 -428 0 -779 0 -780 -1z"/>
<path d="M6887 20504 c-1 -1 -31 -5 -66 -8 -36 -4 -67 -9 -71 -11 -3 -2 -19
-6 -34 -9 -59 -11 -196 -60 -294 -106 -189 -90 -403 -247 -547 -403 -70 -74
-195 -230 -195 -241 0 -4 -9 -16 -20 -28 -11 -12 -20 -28 -20 -35 0 -7 -4 -13
-9 -13 -11 0 -119 -213 -159 -315 -30 -78 -64 -189 -76 -250 -28 -138 -31
-168 -30 -320 0 -146 5 -197 24 -264 5 -17 9 -35 10 -39 7 -60 71 -202 122
-273 104 -146 258 -253 410 -285 123 -26 261 -21 393 15 22 6 42 10 45 11 3 0
43 16 90 36 47 20 97 41 113 47 15 6 27 15 27 19 0 4 5 8 10 8 14 0 141 86
221 150 185 148 395 395 542 638 55 90 156 285 174 337 6 17 27 74 46 128 20
53 34 97 32 97 -2 0 4 21 12 48 8 26 16 56 18 67 2 11 6 34 9 50 27 135 27
324 1 435 -3 14 -8 36 -11 50 -3 14 -23 63 -46 109 -57 120 -160 223 -278 280
-110 52 -200 73 -333 75 -59 2 -108 2 -110 0z"/>
<path d="M4495 18593 c-75 -16 -83 -18 -120 -34 -16 -7 -32 -13 -35 -13 -21
-4 -100 -49 -175 -100 -157 -108 -311 -277 -423 -466 -57 -98 -124 -230 -115
-230 3 0 1 -6 -5 -12 -10 -13 -68 -171 -77 -211 -2 -12 -11 -49 -20 -82 -8
-33 -17 -76 -20 -95 -3 -20 -8 -47 -11 -60 -6 -32 -17 -199 -18 -270 0 -125
29 -322 62 -410 3 -8 6 -17 7 -20 14 -54 68 -168 111 -235 126 -199 330 -320
539 -318 321 3 640 281 839 732 15 35 29 68 30 75 1 6 7 20 13 32 16 28 87
266 98 329 2 11 6 31 10 45 3 14 8 40 11 59 3 18 7 43 10 54 27 140 26 558 -2
649 -3 9 -7 26 -9 39 -2 12 -11 46 -20 75 -9 30 -16 56 -16 59 0 2 -16 36 -35
75 -108 222 -273 339 -484 344 -47 2 -112 -3 -145 -11z"/>
<path d="M7159 17946 c-2 -2 -22 -6 -44 -10 -22 -3 -50 -8 -62 -11 -13 -3 -33
-7 -45 -10 -104 -23 -268 -99 -347 -162 -126 -99 -215 -228 -249 -363 -4 -14
-6 -74 -6 -135 1 -85 6 -125 23 -175 68 -202 224 -383 474 -549 122 -82 311
-179 447 -231 47 -17 101 -39 120 -47 20 -8 42 -15 50 -17 8 -1 40 -10 71 -20
31 -9 67 -19 79 -21 13 -2 37 -9 54 -14 17 -6 51 -13 76 -16 25 -3 52 -8 60
-10 49 -13 142 -20 265 -19 180 0 227 8 340 55 207 86 310 265 301 524 -5 123
-10 163 -31 218 -8 20 -13 37 -10 37 15 0 -127 291 -146 298 -5 2 -9 8 -9 14
0 19 -96 135 -189 228 -220 219 -517 372 -826 425 -41 7 -390 16 -396 11z"/>
<path d="M5757 16574 c-1 -1 -29 -5 -62 -8 -78 -7 -117 -15 -185 -34 -30 -9
-57 -16 -60 -17 -71 -13 -236 -96 -335 -168 -165 -120 -297 -313 -322 -472
-36 -224 63 -430 275 -574 75 -50 228 -122 292 -136 3 -1 25 -7 50 -14 49 -14
61 -17 135 -31 28 -6 61 -12 75 -15 127 -25 508 -26 637 -1 11 3 36 7 54 10
59 10 82 15 139 31 66 19 70 20 92 29 9 4 23 8 30 10 8 1 41 15 73 30 262 127
387 337 339 571 -21 103 -23 108 -63 190 -71 143 -196 280 -355 387 -52 36
-229 126 -259 132 -7 2 -19 6 -27 9 -23 9 -85 27 -109 32 -11 3 -31 7 -43 10
-46 10 -84 17 -128 21 -48 5 -239 12 -243 8z"/>
<path d="M2958 16124 c-146 -34 -297 -152 -411 -324 -21 -30 -37 -60 -37 -67
0 -6 -4 -13 -9 -15 -10 -4 -81 -153 -81 -172 0 -6 -4 -16 -8 -21 -8 -9 -27
-69 -38 -117 -2 -10 -6 -27 -9 -38 -5 -19 -7 -30 -20 -90 -13 -61 -16 -80 -22
-155 -20 -248 11 -519 78 -680 5 -11 18 -45 29 -76 25 -69 104 -202 161 -272
51 -63 152 -151 211 -185 121 -69 272 -93 393 -61 22 6 40 10 40 8 0 -1 33 14
72 35 225 118 376 391 430 781 10 67 10 416 0 485 -4 30 -9 69 -12 85 -2 17
-6 41 -9 55 -3 14 -8 39 -11 55 -3 17 -8 38 -11 47 -3 9 -7 25 -9 35 -4 20
-52 170 -62 193 -3 8 -7 17 -7 20 -4 27 -101 194 -146 252 -80 105 -204 198
-283 214 -10 2 -28 6 -40 10 -39 12 -131 11 -189 -2z"/>
<path d="M4719 14836 c-2 -2 -22 -6 -44 -10 -22 -3 -51 -8 -65 -12 -14 -3 -32
-6 -40 -6 -8 0 -21 -5 -27 -11 -7 -5 -13 -7 -13 -3 0 12 -256 -94 -270 -112
-3 -4 -21 -16 -40 -26 -19 -11 -64 -42 -99 -69 -258 -204 -388 -480 -348 -741
15 -93 92 -210 187 -284 32 -25 130 -74 130 -66 0 4 6 2 13 -3 11 -9 33 -16
92 -29 107 -24 336 -24 458 1 63 12 73 14 94 19 45 10 178 48 188 54 6 4 17 7
25 9 18 2 28 7 180 81 132 64 257 149 337 229 55 55 103 117 103 132 0 6 4 11
9 11 9 0 22 29 51 118 39 117 15 278 -59 385 -113 165 -301 276 -551 324 -30
6 -306 14 -311 9z"/>
<path d="M2295 13505 c-83 -18 -140 -50 -204 -115 -68 -69 -70 -73 -108 -145
-30 -57 -86 -205 -78 -205 2 0 -1 -15 -6 -32 -27 -96 -30 -385 -4 -478 2 -8 7
-28 10 -45 9 -54 13 -71 29 -125 38 -129 109 -274 184 -380 44 -62 186 -210
202 -210 4 0 18 -10 31 -21 34 -30 153 -85 220 -102 78 -20 200 -15 274 12 33
12 62 26 63 31 2 6 11 10 19 10 27 0 127 113 165 186 65 125 82 210 83 399 0
146 -4 187 -30 305 -4 14 -8 36 -11 49 -14 67 -72 219 -125 327 -184 376 -469
592 -714 539z"/>
<path d="M4125 12949 c-248 -59 -460 -202 -619 -419 -64 -86 -134 -235 -151
-321 -42 -206 -7 -376 101 -484 114 -114 291 -147 499 -95 22 6 47 12 55 14
109 28 328 148 445 243 72 60 182 172 235 242 58 76 130 205 130 233 0 8 3 18
8 22 4 4 7 11 8 14 0 4 4 27 9 52 26 139 -10 263 -104 363 -36 38 -118 96
-143 101 -7 2 -26 8 -43 15 -104 43 -295 51 -430 20z"/>
<path d="M4128 11245 c-1 -1 -23 -5 -48 -8 -69 -8 -94 -16 -185 -56 -169 -76
-338 -245 -426 -427 -145 -302 -103 -625 96 -731 76 -41 196 -48 295 -19 67
20 168 70 205 102 16 13 32 24 36 24 19 0 209 201 257 271 118 173 176 336
173 484 -1 66 -2 71 -19 131 -26 90 -122 180 -222 208 -52 15 -154 28 -162 21z"/>
<path d="M2311 11216 c-108 -38 -181 -118 -223 -245 -26 -78 -31 -113 -31
-216 0 -113 12 -196 41 -275 3 -8 6 -19 8 -25 12 -47 61 -156 95 -212 118
-193 268 -331 436 -398 77 -31 103 -37 202 -41 65 -3 97 1 145 17 54 18 156
83 156 99 0 4 9 15 19 27 17 18 58 90 59 103 1 3 3 12 6 20 16 49 24 126 21
200 -3 86 -7 113 -27 185 -6 22 -12 45 -14 50 -16 70 -73 185 -146 294 -90
134 -136 184 -282 306 -32 27 -182 104 -215 110 -9 2 -16 4 -16 5 0 4 -47 10
-107 14 -50 3 -81 -2 -127 -18z"/>
</g>
</svg>
